<svg xmlns="http://www.w3.org/2000/svg" viewBox="0 0 1200 1600" role="img" aria-label="Auth visual">
  <defs>
    <linearGradient id="bg" x1="0" y1="0" x2="1" y2="1">
      <stop offset="0%" stop-color="#0d5c7c"/>
      <stop offset="50%" stop-color="#0f7da3"/>
      <stop offset="100%" stop-color="#22a6a1"/>
    </linearGradient>
    <radialGradient id="glowA" cx="20%" cy="20%" r="45%">
      <stop offset="0%" stop-color="#ffffff" stop-opacity="0.32"/>
      <stop offset="100%" stop-color="#ffffff" stop-opacity="0"/>
    </radialGradient>
    <radialGradient id="glowB" cx="85%" cy="65%" r="38%">
      <stop offset="0%" stop-color="#f97316" stop-opacity="0.28"/>
      <stop offset="100%" stop-color="#f97316" stop-opacity="0"/>
    </radialGradient>
  </defs>

  <rect width="1200" height="1600" fill="url(#bg)"/>
  <rect width="1200" height="1600" fill="url(#glowA)"/>
  <rect width="1200" height="1600" fill="url(#glowB)"/>

  <g opacity="0.18" fill="#ffffff">
    <circle cx="160" cy="260" r="24"/>
    <circle cx="1040" cy="220" r="16"/>
    <circle cx="980" cy="1040" r="20"/>
    <circle cx="220" cy="1300" r="12"/>
  </g>

  <g transform="translate(130 250)">
    <rect x="0" y="0" width="940" height="980" rx="40" fill="#ffffff" fill-opacity="0.10"/>
    <rect x="60" y="90" width="820" height="130" rx="24" fill="#ffffff" fill-opacity="0.18"/>
    <rect x="60" y="260" width="500" height="22" rx="11" fill="#ffffff" fill-opacity="0.60"/>
    <rect x="60" y="302" width="700" height="22" rx="11" fill="#ffffff" fill-opacity="0.45"/>
    <rect x="60" y="344" width="620" height="22" rx="11" fill="#ffffff" fill-opacity="0.35"/>

    <rect x="60" y="420" width="360" height="210" rx="20" fill="#ffffff" fill-opacity="0.16"/>
    <rect x="450" y="420" width="430" height="210" rx="20" fill="#ffffff" fill-opacity="0.14"/>

    <rect x="60" y="680" width="820" height="200" rx="20" fill="#ffffff" fill-opacity="0.16"/>
    <rect x="90" y="728" width="440" height="20" rx="10" fill="#ffffff" fill-opacity="0.60"/>
    <rect x="90" y="764" width="700" height="20" rx="10" fill="#ffffff" fill-opacity="0.45"/>
    <rect x="90" y="800" width="530" height="20" rx="10" fill="#ffffff" fill-opacity="0.35"/>
  </g>
</svg>
